<svg width="76" height="24" viewBox="0 0 76 24" fill="none" xmlns="http://www.w3.org/2000/svg">
<g clip-path="url(#clip0_413_1912)">
<path d="M24.3236 16.9127C24.3236 18.4363 25.268 19.0989 26.5108 19.5527L27.8585 20.0346C28.6912 20.3524 29.1663 20.6361 29.1663 21.36C29.1663 22.1907 28.4201 22.5668 27.3581 22.5668C26.2679 22.5668 25.2496 22.1742 24.4023 21.495V23.142C25.0543 23.5938 26.1134 23.9524 27.3581 23.9524C29.2538 23.9524 30.6977 23.0196 30.6977 21.3308C30.6977 19.989 30.0292 19.1728 28.5746 18.6461L27.0724 18.1039C26.297 17.8309 25.8559 17.5598 25.8559 16.8797C25.8559 16.1276 26.5574 15.7671 27.497 15.7671C28.5882 15.7671 29.4374 16.1733 30.2128 16.7631V15.1482C29.4666 14.6672 28.5114 14.3971 27.464 14.3971C25.7538 14.3961 24.3236 15.2822 24.3236 16.9127Z" fill="#858585"/>
<path d="M36.3741 14.5545H34.7932V23.8115H36.3741V14.5545Z" fill="#858585"/>
<path d="M7.88308 14.5545H6.30025V23.8115H7.88308V14.5545Z" fill="#858585"/>
<path d="M42.5742 15.941H44.5079C46.4628 15.941 47.5083 17.1886 47.5083 19.1805C47.5083 21.1579 46.4628 22.4113 44.5079 22.4113H42.5742V15.941ZM40.9953 14.5545V23.8115H44.5662C47.315 23.8115 49.0912 22.0013 49.0912 19.1805C49.0912 16.3637 47.314 14.5545 44.5662 14.5545H40.9953Z" fill="#858585"/>
<path d="M52.4317 14.5545V23.8115H58.079V22.4103H53.9786V19.5391H57.6563V18.1681H53.9786V15.941H58.079V14.5545H52.4317Z" fill="#858585"/>
<path d="M64.3773 15.9119H66.1477C67.1961 15.9119 67.7869 16.4706 67.7869 17.3286C67.7869 18.1865 67.1961 18.7452 66.1477 18.7452H64.3773V15.9119ZM62.8023 14.5545V23.8115H64.3773V20.055H65.4986L68.742 23.8105H70.5347L67.1845 19.9967C68.6575 19.7684 69.3483 18.8784 69.3483 17.3286C69.3483 15.5164 68.1036 14.5535 66.1778 14.5535H62.8023V14.5545Z" fill="#858585"/>
<path d="M21.3785 2.66234C21.3785 4.21019 22.3268 4.88355 23.5812 5.34315L24.9425 5.83287C25.784 6.15449 26.2572 6.44598 26.2572 7.18056C26.2572 8.02299 25.508 8.40582 24.4373 8.40582C23.3364 8.40582 22.3113 8.00744 21.4562 7.31853V8.98785C22.113 9.44744 23.1838 9.8157 24.4373 9.8157C26.3495 9.8157 27.8021 8.86542 27.8021 7.15044C27.8021 5.7872 27.1297 4.95934 25.6615 4.42299L24.1477 3.87108C23.3675 3.59513 22.9244 3.31918 22.9244 2.63027C22.9244 1.86363 23.6279 1.49635 24.5762 1.49635C25.6771 1.49635 26.5331 1.9093 27.3134 2.50687V0.867683C26.5642 0.376995 25.6003 0.101044 24.5461 0.101044C22.8165 0.102987 21.3785 1.0076 21.3785 2.66234Z" fill="#858585"/>
<path d="M69.1725 2.65553C69.1725 4.20242 70.1208 4.87675 71.3742 5.33731L72.7355 5.82703C73.576 6.14865 74.0502 6.44015 74.0502 7.17472C74.0502 8.01715 73.301 8.39999 72.2303 8.39999C71.1294 8.39999 70.1043 8.00161 69.2483 7.31173V8.98104C69.9061 9.44063 70.9759 9.80889 72.2303 9.80889C74.1415 9.80889 75.5942 8.85861 75.5942 7.14266C75.5942 5.77942 74.9208 4.95157 73.4536 4.41521L71.9398 3.86428C71.1595 3.58833 70.7164 3.31238 70.7164 2.62347C70.7164 1.8578 71.4199 1.48954 72.3673 1.48954C73.4691 1.48954 74.3252 1.90347 75.1054 2.50007V0.860878C74.3563 0.37019 73.3924 0.0942383 72.3372 0.0942383C70.6095 0.0971533 69.1725 1.0008 69.1725 2.65553Z" fill="#858585"/>
<path d="M59.5676 2.65553C59.5676 4.20242 60.516 4.87675 61.7694 5.33731L63.1307 5.82703C63.9721 6.14865 64.4453 6.44015 64.4453 7.17472C64.4453 8.01715 63.6952 8.39999 62.6254 8.39999C61.5245 8.39999 60.4994 8.00161 59.6434 7.31173V8.98104C60.3002 9.44063 61.371 9.80889 62.6254 9.80889C64.5367 9.80889 65.9893 8.85861 65.9893 7.14266C65.9893 5.77942 65.316 4.95157 63.8487 4.41521L62.3349 3.86428C61.5547 3.58833 61.1126 3.31238 61.1126 2.62347C61.1126 1.8578 61.816 1.48954 62.7634 1.48954C63.8653 1.48954 64.7213 1.90347 65.5015 2.50007V0.860878C64.7524 0.37019 63.7885 0.0942383 62.7343 0.0942383C61.0057 0.0971533 59.5676 1.0008 59.5676 2.65553Z" fill="#858585"/>
<path d="M50.2542 0.2565V9.66314H55.9414V8.23966H51.8128V5.32176H55.5158V3.92938H51.8128V1.66541H55.9414V0.2565H50.2542Z" fill="#858585"/>
<path d="M1.54494 5.52678H3.56308C4.63385 5.52678 5.2149 6.04759 5.2149 6.90557C5.2149 7.748 4.63385 8.28436 3.56308 8.28436H1.54494V5.52678ZM1.54494 1.63626H3.27255C4.35887 1.63626 4.93992 2.01909 4.93992 2.90719C4.93992 3.79529 4.35887 4.20921 3.27255 4.20921H1.54494V1.63626ZM0 0.2565V9.66314H3.59417C5.55109 9.66314 6.77441 8.7284 6.77441 6.96678C6.77441 5.97083 6.13215 5.09731 5.24502 4.80678C5.93296 4.56095 6.46834 3.82638 6.46834 2.81488C6.46834 1.13002 5.24502 0.2565 3.28713 0.2565H0Z" fill="#858585"/>
<path d="M33.4844 0.2565H31.8938V9.66314H33.4844V0.2565Z" fill="#858585"/>
<path d="M16.1198 0.2565V5.74152C16.1198 7.54978 15.3551 8.39221 13.9482 8.39221C12.5412 8.39221 11.7765 7.54978 11.7765 5.74152V0.2565H10.1859V5.91059C10.1859 8.49909 11.7153 9.81666 13.9482 9.81666C16.1956 9.81666 17.7104 8.49909 17.7104 5.92516V0.2565H16.1198Z" fill="#858585"/>
<path d="M44.4758 0.256493V6.27107L38.022 0.109772V9.66313H39.5543V3.54459L46.0042 9.80985V0.256493H44.4758Z" fill="#858585"/>
<path d="M12.4149 23.8105H13.9355V17.7891L20.3378 23.9543V14.5535H18.8211V20.4719L12.4149 14.4107V23.8105Z" fill="#858585"/>
</g>
<defs>
<clipPath id="clip0_413_1912">
<rect width="75.5951" height="24" fill="white"/>
</clipPath>
</defs>
</svg>
