<svg width="52" height="24" viewBox="0 0 52 24" fill="none" xmlns="http://www.w3.org/2000/svg">
<g clip-path="url(#clip0_413_1910)">
<path d="M3.91614 12.0074C3.91614 16.4097 7.49756 19.9911 11.8998 19.9911H19.357C19.8253 19.9911 20.1885 19.5459 20.1885 19.1626V4.53245C20.1885 3.60824 20.9404 2.85609 21.8644 2.85609C22.4572 2.85609 23.0096 3.17038 23.3057 3.67668C23.3428 3.7404 25.6005 7.63289 27.9907 11.7543C30.2744 15.6925 32.6362 19.7648 32.6733 19.8287C32.7928 20.0325 33.0264 20.164 33.2688 20.164C33.6528 20.164 33.9654 19.8517 33.9654 19.4674V4.53245C33.9654 3.60824 34.7169 2.85609 35.6414 2.85609C36.2341 2.85609 36.7865 3.17038 37.0824 3.67668C37.1199 3.7404 39.3757 7.63289 41.7644 11.7545C44.0459 15.6918 46.4056 19.7631 46.4435 19.8287C46.563 20.0325 46.7967 20.164 47.0391 20.164C47.4231 20.164 47.7352 19.8517 47.7352 19.4674V0.104478H44.7959V11.6303C44.7959 11.6303 39.4701 2.46349 39.2976 2.16872C38.5202 0.839685 37.0459 0 35.4768 0C33.0189 0 31.0257 1.99409 31.0257 4.45179V11.6303C31.0257 11.6303 25.7001 2.46349 25.5274 2.16872C24.7499 0.839685 23.2756 0 21.7065 0C19.2486 0 17.2554 1.99409 17.2554 4.45179V16.2475C17.2569 16.6768 16.9342 17.0509 16.4644 17.0518H11.9313C9.14561 17.0518 6.88721 14.7934 6.88721 12.0074C6.88721 9.22152 9.14561 6.96312 11.9313 6.96312H15.7284V4.0238H11.8998C7.49756 4.0238 3.91614 7.60522 3.91614 12.0074Z" fill="#858585"/>
<path d="M48.7152 0.104401V19.4676C48.7152 20.392 47.9637 21.1439 47.0393 21.1439C46.4465 21.1439 45.8941 20.8296 45.598 20.3236C45.5609 20.2598 43.3047 16.3671 40.9165 12.2457C38.6345 8.3086 36.2755 4.23696 36.2369 4.17153C36.1178 3.96773 35.8837 3.836 35.6413 3.836C35.2573 3.836 34.9452 4.14836 34.9452 4.53238V19.4676C34.9452 20.392 34.1932 21.1439 33.269 21.1439C32.6763 21.1439 32.1243 20.8296 31.8278 20.3236C31.7907 20.2598 29.5329 16.3673 27.1428 12.2457C24.8589 8.30774 22.4973 4.23546 22.46 4.17153C22.3405 3.96773 22.1068 3.836 21.8644 3.836C21.4804 3.836 21.1682 4.14836 21.1682 4.53238V19.1627C21.1682 20.126 20.3219 20.971 19.3572 20.971H11.9C6.95754 20.971 2.93632 16.9502 2.93632 12.0074C2.93632 7.06495 6.95754 3.04395 11.9 3.04395H15.7283V0.104401H11.9034C5.32944 0.104401 0 5.43342 0 12.0074C0 18.5815 5.32944 23.9108 11.9034 23.9108H19.432C22.284 23.9123 24.1181 22.2413 24.1142 19.1591V12.3697C24.1142 12.3697 29.478 21.6017 29.6127 21.8315C30.3902 23.1603 31.8645 24 33.4336 24C35.8917 24 37.8845 22.0059 37.8845 19.5484V12.3697C37.8845 12.3697 43.2103 21.5367 43.3828 21.8315C44.1605 23.1603 45.6347 24 47.2038 24C49.6617 24 51.6548 22.0059 51.6548 19.5484V0.104401H48.7152Z" fill="#858585"/>
</g>
<defs>
<clipPath id="clip0_413_1910">
<rect width="51.6548" height="24" fill="white"/>
</clipPath>
</defs>
</svg>
