<svg width="52" height="40" viewBox="0 0 52 40" fill="none" xmlns="http://www.w3.org/2000/svg">
<g clip-path="url(#clip0_414_2088)">
<path opacity="0.55" d="M11.0405 1.50767V21.2908H13.8236C14.8415 21.2908 16.9877 21.2662 18.8513 19.4201C20.7149 17.5739 20.6902 14.3701 20.6902 11.1055C20.6902 7.84092 20.8497 5.07784 19.0964 3.31682C17.3426 1.55631 14.2282 1.51944 14.2282 1.51944L11.0405 1.50767ZM21.0149 20.5206C18.622 22.5991 13.9969 22.3913 13.9969 22.3913H4.07178V21.2908H6.69742V1.51944H4.14562V0.419434H14.7943C16.5123 0.419434 19.6774 0.627202 21.9349 2.51028C24.2041 4.40515 26.0077 7.35182 26.0077 11.1426C26.0077 15.8011 23.2231 18.6011 21.0143 20.5206H21.0149Z" fill="#858585"/>
<path opacity="0.55" d="M26.759 22.2225V21.0481H29.1144V10.8143H27.4462V9.7994C27.4462 9.7994 29.6544 9.67731 30.9672 9.55526C32.2677 9.43269 32.881 9.34717 32.881 9.34717V11.585C32.881 11.585 34.6349 9.27369 36.9662 9.22498C38.8431 9.18805 39.3954 10.203 39.3831 11.2179C39.3585 12.4774 38.1195 12.9789 37.1749 13.0153C35.2733 13.0768 35.5431 10.6923 35.5431 10.6923C35.5431 10.6923 34.8318 11.0589 33.9482 12.3184C33.3644 13.143 33.0359 14.1209 33.0036 15.1307V21.0852H35.4328V22.1857L26.759 22.2225Z" fill="#858585"/>
<path opacity="0.55" d="M37.5795 20.2251C37.5795 19.1446 38.5128 18.2692 39.6641 18.2692C40.8154 18.2692 41.7487 19.1446 41.7487 20.2251C41.7487 21.3051 40.8154 22.1805 39.6641 22.1805C38.5128 22.1805 37.5795 21.3051 37.5795 20.2251Z" fill="#858585"/>
<path d="M24.4015 31.5385V38.605H26.7574V39.6933H18.5128V38.605H20.8564V19.2132H18.8933V18.2349C18.8933 18.2349 21.7149 18.1861 22.4882 18.1127C23.4323 18.0271 24.4267 17.9415 24.4267 17.9415V28.5302C24.4267 28.5302 26.0215 26.5738 29.8118 26.5738C34.7928 26.5738 34.6456 30.7307 34.6456 30.7307V38.605H38.1544V28.1385H36.339V27.2338C36.339 27.2338 39.1359 27.1852 39.921 27.1242C40.4958 27.0731 41.066 26.9788 41.6267 26.8425V38.6175H45.2456V19.225H43.3687V18.1616C43.3687 18.1616 46.4113 18.0642 47.4538 17.9663C48.1287 17.9047 48.8282 17.8195 48.8282 17.8195V38.6175H51.2574V39.7055L28.6344 39.7181L28.6467 38.6175H31.0143V29.8871C31.0143 29.8871 31.1615 27.381 28.622 27.5886C24.5487 27.8943 24.4015 31.538 24.4015 31.538V31.5385Z" fill="#858585"/>
<path d="M2.7128 19.0302H0.099467V17.942H11.5825C11.5825 17.942 19.3733 18.0519 19.3733 23.4688C19.3733 28.9339 11.6072 29.0565 11.6072 29.0565H6.89639V38.5933H9.53383V39.6938H0.0871582V38.5933H2.72511L2.7128 19.0302ZM6.92049 19.0302V28.2667H10.6113C10.6113 28.2667 13.161 28.3642 14.0933 26.9822C14.8041 25.9422 14.8041 24.584 14.7795 22.823C14.7549 21.4399 14.5466 19.0179 11.04 19.0179L6.92049 19.0302Z" fill="#858585"/>
</g>
<defs>
<clipPath id="clip0_414_2088">
<rect width="51.2821" height="40" fill="white"/>
</clipPath>
</defs>
</svg>
