<svg width="97" height="24" viewBox="0 0 97 24" fill="none" xmlns="http://www.w3.org/2000/svg">
<g clip-path="url(#clip0_413_1909)">
<path fill-rule="evenodd" clip-rule="evenodd" d="M58.632 6.90401C57.112 6.90401 55.896 7.30801 54.628 7.91601C54.636 4.39201 54.684 1.31601 54.768 0.156006L47.388 1.55601V2.20801L48.108 2.30001C49.14 2.44001 49.532 3.02801 49.656 4.38001C49.892 6.96801 49.852 20.828 49.656 23.044C51.644 23.484 53.792 23.816 55.948 23.816C61.796 23.816 65.324 20.264 65.324 14.64C65.324 10.144 62.468 6.90401 58.632 6.90401ZM56.064 22.68C55.644 22.68 55.108 22.616 54.808 22.56C54.696 21.004 54.62 14.588 54.628 8.98401C55.304 8.76401 55.764 8.70801 56.352 8.70801C58.772 8.70801 60.14 11.452 60.14 14.92C60.14 19.332 58.464 22.68 56.064 22.68ZM19.66 7.08001L18.508 7.39201C17.504 4.10001 15.9 2.24001 12.92 2.24001H9.09601C8.91601 4.34001 8.85201 7.83601 8.87201 11.472L11.452 11.388C13.168 11.332 13.88 10.08 14.292 8.23201H15.256V15.936H14.292C13.88 14.088 13.156 12.844 11.452 12.78L8.88401 12.696C8.91201 15.456 8.98801 17.812 9.10801 19.212C9.28801 21.264 9.84801 22.168 11.328 22.376L12.64 22.516V23.436H0.160011V22.516L1.19201 22.376C2.67201 22.164 3.23601 21.264 3.41201 19.212C3.69201 15.836 3.74001 8.80401 3.41201 4.88401C3.23201 2.83201 2.67201 1.92801 1.19201 1.72001L0.160011 1.58001V0.660007H19.556L19.66 7.08001ZM25.868 6.72001C31.38 6.72001 34.116 10.392 34.116 15.224C34.116 19.944 31.024 23.82 25.508 23.82C19.992 23.82 17.248 20.148 17.248 15.316C17.252 10.596 20.344 6.72001 25.868 6.72001ZM25.576 7.77201C23.14 7.77201 22.456 11.012 22.456 15.272C22.456 19.424 23.536 22.772 25.792 22.772C28.228 22.772 28.912 19.532 28.912 15.272C28.912 11.12 27.836 7.77201 25.576 7.77201ZM66.676 15.428C66.668 10.944 69.556 6.74001 75.236 6.74001C79.856 6.74001 82.072 10.108 82.088 14.508H71.776C71.664 18.504 73.728 21.44 77.664 21.44C79.4 21.44 80.336 21.016 81.384 20.236L81.872 20.808C80.728 22.364 78.336 23.844 75.168 23.844C70.192 23.832 66.684 20.372 66.676 15.428ZM71.812 13.368L76.988 13.256C77.016 11.012 76.652 7.80001 74.784 7.80001C72.908 7.80001 71.86 10.836 71.812 13.368ZM95.344 11.764L94.5 11.984C93.6 9.12001 92.232 7.90801 90.236 7.90801C88.904 7.90801 87.94 8.89201 87.94 10.32C87.94 11.736 89.02 12.484 92.14 13.668C95.02 14.764 96.16 16.024 96.16 18.316C96.16 21.74 93.488 23.836 89.1 23.836C86.992 23.836 84.648 23.376 83.28 22.832L83.132 18.1L83.976 17.88C85.184 21.192 86.76 22.4 88.832 22.4C90.596 22.4 91.58 21.168 91.58 19.852C91.58 18.572 90.84 17.808 88.028 16.816C85.412 15.896 83.52 14.772 83.52 11.9C83.52 9.11201 86.032 6.72801 90.184 6.72801C92.116 6.72801 93.944 7.06001 95.172 7.61201L95.344 11.764ZM46.708 11.636C44.476 10.164 42.068 10.808 41.572 11.608C41.404 14.26 41.44 18.316 41.628 20.36C41.748 21.712 42.144 22.3 43.176 22.44L44.508 22.532V23.452H34.272V22.532L34.992 22.44C36.024 22.3 36.416 21.712 36.54 20.36C36.736 18.14 36.776 13.52 36.54 10.936C36.42 9.584 36.024 8.99601 34.992 8.85601L34.272 8.76401V8.11201L41.624 6.71201L41.54 10.484C43.256 6.60001 46.648 6.09601 48.516 7.18001L46.708 11.636Z" fill="#858585"/>
</g>
<defs>
<clipPath id="clip0_413_1909">
<rect width="96.4" height="24" fill="white"/>
</clipPath>
</defs>
</svg>
