<svg width="87" height="24" viewBox="0 0 87 24" fill="none" xmlns="http://www.w3.org/2000/svg">
<g clip-path="url(#clip0_413_1908)">
<path d="M0 5.84247H5.14864L8.14663 13.5125L11.1835 5.84247H16.1966L8.64804 24H3.60323L5.66952 19.1885L0 5.84247Z" fill="#858585"/>
<path d="M21.4188 5.53714C17.5504 5.53714 15.1049 9.0065 15.1049 12.4614C15.1049 16.3493 17.7861 19.4316 21.3454 19.4316C24.0006 19.4316 25.0017 17.8139 25.0017 17.8139V19.0741H29.4923V5.84256H25.0017V7.04542C25.0017 7.04542 23.8848 5.53714 21.4188 5.53714ZM22.374 9.78923C24.1589 9.78923 25.08 11.2016 25.08 12.476C25.08 13.8483 24.0932 15.195 22.374 15.195C20.9492 15.195 19.6615 14.0305 19.6615 12.5344C19.6615 11.0171 20.6972 9.78923 22.374 9.78923Z" fill="#858585"/>
<path d="M31.0389 19.074V0H35.7358V7.09124C35.7358 7.09124 36.8514 5.53878 39.1879 5.53878C42.046 5.53878 43.7205 7.66827 43.7205 10.7112V19.074H39.058V11.8568C39.058 10.827 38.5674 9.83217 37.4563 9.83217C36.3252 9.83217 35.7358 10.8421 35.7358 11.8568V19.074H31.0389Z" fill="#858585"/>
<path d="M51.7285 5.5387C47.2985 5.5387 44.6606 8.90732 44.6606 12.5165C44.6606 16.6238 47.8545 19.4316 51.7453 19.4316C55.5165 19.4316 58.8164 16.7512 58.8164 12.5854C58.8164 8.02725 55.3613 5.5387 51.7285 5.5387ZM51.7708 9.82816C53.3357 9.82816 54.4184 11.1315 54.4184 12.5214C54.4184 13.7069 53.4095 15.169 51.7708 15.169C50.2693 15.169 49.1425 13.9646 49.1425 12.5084C49.1425 11.1057 50.0793 9.82816 51.7708 9.82816Z" fill="#858585"/>
<path d="M66.6412 5.5387C62.2111 5.5387 59.5732 8.90732 59.5732 12.5165C59.5732 16.6238 62.7671 19.4316 66.658 19.4316C70.4291 19.4316 73.729 16.7512 73.729 12.5854C73.729 8.02725 70.2739 5.5387 66.6412 5.5387ZM66.6835 9.82816C68.2483 9.82816 69.3311 11.1315 69.3311 12.5214C69.3311 13.7069 68.3222 15.169 66.6835 15.169C65.182 15.169 64.0551 13.9646 64.0551 12.5084C64.0551 11.1057 64.992 9.82816 66.6835 9.82816Z" fill="#858585"/>
<path d="M77.4352 19.3549C79.1577 19.3549 80.5541 17.9585 80.5541 16.236C80.5541 14.5135 79.1577 13.1171 77.4352 13.1171C75.7127 13.1171 74.3163 14.5135 74.3163 16.236C74.3163 17.9585 75.7127 19.3549 77.4352 19.3549Z" fill="#858585"/>
<path d="M81.579 11.9714H75.9641L80.9474 0H86.5413L81.579 11.9714Z" fill="#858585"/>
</g>
<defs>
<clipPath id="clip0_413_1908">
<rect width="86.5413" height="24" fill="white"/>
</clipPath>
</defs>
</svg>
